<?xml version="1.0" standalone="no"?>
<!DOCTYPE svg PUBLIC "-//W3C//DTD SVG 20010904//EN"
 "http://www.w3.org/TR/2001/REC-SVG-20010904/DTD/svg10.dtd">
<svg version="1.0" xmlns="http://www.w3.org/2000/svg"
 width="500.000000pt" height="500.000000pt" viewBox="0 0 500.000000 500.000000"
 preserveAspectRatio="xMidYMid meet">

<g transform="translate(0.000000,500.000000) scale(0.100000,-0.100000)"
fill="#000000" stroke="none">
<path d="M2054 3941 c-45 -11 -122 -33 -173 -50 -72 -24 -109 -31 -172 -31
-92 0 -131 -15 -154 -60 -14 -26 -15 -103 -13 -609 3 -563 4 -580 23 -601 36
-40 65 -47 225 -54 85 -3 234 -9 330 -13 224 -10 615 -10 845 0 99 4 243 10
320 13 158 6 192 14 226 50 l24 26 3 579 c2 506 1 583 -13 609 -23 45 -62 60
-153 60 -64 0 -101 7 -188 35 -155 50 -260 68 -380 63 -97 -3 -106 -6 -188
-47 -80 -40 -88 -43 -104 -28 -10 9 -44 28 -77 44 -53 24 -74 27 -180 30 -90
2 -140 -2 -201 -16z m334 -64 c24 -8 61 -27 83 -42 l39 -28 0 -518 0 -519 -52
34 c-106 70 -225 81 -419 41 -69 -14 -225 -56 -263 -71 -15 -6 -16 35 -16 499
0 471 1 505 18 512 91 37 292 97 367 108 57 9 200 0 243 -16z m590 7 c78 -16
196 -51 290 -86 l52 -19 0 -506 c0 -464 -1 -505 -16 -499 -102 39 -310 85
-424 93 -103 7 -199 -17 -268 -67 l-42 -30 2 522 3 522 45 28 c92 56 217 71
358 42z m-1285 -111 c3 -16 6 -266 6 -557 0 -347 3 -532 10 -539 6 -6 56 -9
128 -6 287 9 577 4 641 -13 56 -14 68 -14 125 0 64 16 344 22 630 13 79 -3
132 0 138 6 7 7 10 199 10 552 0 298 2 548 5 556 7 18 44 20 67 3 16 -12 17
-57 17 -582 0 -447 -2 -573 -12 -583 -15 -14 -109 -20 -593 -40 -309 -12 -403
-11 -950 13 -229 10 -280 14 -292 27 -10 10 -13 135 -14 582 0 530 1 570 17
582 31 23 61 16 67 -14z m675 -993 c23 -11 52 -26 65 -36 22 -16 22 -16 -8 -9
-16 4 -142 7 -280 7 l-250 0 95 24 c173 44 298 49 378 14z m722 -14 l95 -24
-240 0 c-132 0 -258 -3 -280 -7 -43 -7 -39 0 20 32 80 45 229 44 405 -1z"/>
<path d="M1580 2319 c0 -5 5 -9 10 -9 6 0 10 -32 10 -75 0 -60 -3 -76 -17 -84
-14 -8 -8 -10 27 -10 25 0 39 3 33 6 -7 2 -13 18 -13 34 0 24 4 29 24 29 57 0
101 76 57 100 -25 13 -131 21 -131 9z m110 -24 c20 -24 -3 -65 -35 -65 -23 0
-25 4 -25 40 0 35 3 40 24 40 13 0 29 -7 36 -15z"/>
<path d="M1830 2320 c0 -6 5 -10 10 -10 6 0 10 -32 10 -75 0 -60 -3 -76 -17
-84 -14 -8 -9 -10 27 -11 34 0 41 3 32 12 -16 16 -16 68 1 68 6 -1 24 -19 39
-40 19 -28 35 -40 51 -40 23 0 22 2 -15 41 l-39 41 26 20 c27 21 33 49 13 66
-17 13 -138 24 -138 12z m108 -22 c7 -7 12 -18 12 -24 0 -19 -29 -44 -51 -44
-16 0 -19 7 -19 40 0 35 3 40 23 40 13 0 28 -5 35 -12z"/>
<path d="M2129 2301 c-51 -51 -37 -130 27 -157 29 -12 39 -12 68 0 42 17 56
42 56 94 0 33 -6 45 -31 66 -41 35 -83 34 -120 -3z m101 -8 c17 -22 21 -37 17
-70 -6 -53 -21 -73 -57 -73 -36 0 -51 20 -57 73 -4 33 0 48 17 70 12 15 30 27
40 27 10 0 28 -12 40 -27z"/>
<path d="M2419 2301 c-38 -38 -40 -97 -6 -137 19 -22 32 -27 69 -27 54 0 68 7
68 37 0 12 5 27 12 34 9 9 3 12 -27 12 -30 0 -36 -3 -27 -12 7 -7 12 -22 12
-35 0 -35 -52 -32 -80 5 -43 54 -4 153 55 138 23 -6 26 -11 21 -32 -6 -21 -4
-25 11 -22 25 5 29 39 7 55 -32 23 -83 16 -115 -16z"/>
<path d="M2665 2320 c-3 -4 2 -10 10 -14 23 -9 21 -141 -2 -155 -14 -8 -8 -10
27 -10 25 0 39 3 33 6 -14 5 -18 73 -5 73 5 0 23 -18 41 -40 20 -25 40 -40 54
-40 19 1 20 2 7 13 -9 7 -25 25 -36 41 l-21 29 25 22 c28 24 24 60 -7 70 -31
10 -121 13 -126 5z m113 -38 c4 -28 -14 -52 -39 -52 -16 0 -19 8 -19 41 0 38
1 40 28 37 19 -2 28 -9 30 -26z"/>
<path d="M2940 2318 c0 -4 5 -8 10 -8 6 0 10 -32 10 -75 0 -60 -3 -76 -17 -84
-13 -8 2 -10 60 -11 l77 0 -1 28 0 27 -16 -22 c-10 -15 -26 -23 -44 -23 -27 0
-29 3 -29 39 0 36 3 40 28 44 l27 4 -27 2 c-25 1 -28 5 -28 36 0 32 3 35 29
35 21 0 31 -6 36 -22 l8 -23 4 23 c3 13 3 25 1 28 -8 8 -128 10 -128 2z"/>
<path d="M3206 2317 c-12 -9 -17 -23 -14 -42 2 -23 12 -35 43 -51 30 -15 40
-26 40 -45 0 -20 -5 -24 -30 -24 -25 0 -30 4 -29 23 1 25 -23 30 -33 6 -15
-39 74 -65 113 -33 27 22 14 69 -25 90 -54 29 -67 45 -51 64 20 24 56 15 52
-13 -3 -28 21 -25 26 3 7 33 -56 48 -92 22z"/>
<path d="M3436 2314 c-33 -32 -16 -64 52 -98 45 -23 42 -60 -5 -64 -30 -3 -33
-1 -33 23 0 17 -5 25 -12 23 -7 -3 -13 -15 -13 -28 0 -47 90 -45 119 3 15 24
-1 46 -52 75 -46 25 -56 56 -22 67 27 8 43 -3 37 -26 -6 -24 21 -26 30 -3 14
37 -70 60 -101 28z"/>
<path d="M2167 1934 c-14 -14 -7 -24 18 -24 14 0 25 -1 25 -3 0 -2 -11 -37
-25 -77 -29 -85 -30 -100 -11 -100 13 0 34 44 65 143 11 32 17 37 43 37 19 0
28 4 26 13 -5 13 -129 23 -141 11z"/>
<path d="M2447 1905 c-9 -19 -21 -35 -27 -35 -6 0 -8 -10 -4 -24 6 -25 -19
-86 -36 -86 -13 0 -13 -2 6 54 9 26 14 50 11 53 -14 13 -34 -8 -45 -45 -7 -22
-20 -46 -29 -53 -15 -13 -16 -11 -9 16 18 76 19 85 3 85 -23 0 -56 -105 -38
-123 13 -13 265 -19 291 -6 8 4 27 12 43 18 15 6 32 22 39 36 17 37 27 30 21
-15 -3 -22 -2 -41 3 -41 5 -1 77 -3 159 -4 140 -3 152 -2 173 18 21 19 31 57
15 57 -4 0 -17 -12 -29 -27 -12 -16 -25 -25 -28 -22 -3 3 5 39 19 79 29 84 30
100 11 100 -8 0 -25 -32 -42 -80 -25 -74 -47 -110 -59 -98 -3 3 2 25 10 48 21
59 16 68 -36 61 -40 -6 -45 -9 -59 -48 -17 -45 -36 -71 -45 -61 -4 3 1 23 9
43 20 46 20 65 2 65 -8 0 -22 -21 -32 -47 -9 -27 -21 -52 -25 -57 -15 -17 -19
0 -7 32 11 29 10 34 -17 61 -42 42 -62 40 -56 -6 2 -16 -27 -73 -38 -73 -4 0
-7 19 -7 42 1 33 -3 43 -17 46 -41 8 -63 -7 -84 -58 -13 -30 -28 -50 -37 -50
-20 0 -20 11 -2 55 8 19 22 35 30 35 9 0 16 5 16 10 0 6 -5 10 -10 10 -7 0 -8
13 -4 35 5 27 3 35 -8 35 -8 0 -22 -16 -31 -35z m123 -74 c0 -5 -7 -14 -15
-21 -8 -7 -15 -21 -15 -31 0 -11 -5 -19 -11 -19 -10 0 -4 52 8 73 6 10 33 9
33 -2z m296 -23 c-6 -33 -22 -56 -31 -47 -2 3 0 22 6 42 13 46 34 50 25 5z"/>
<path d="M2787 1933 c-4 -3 -7 -12 -7 -20 0 -15 26 -18 34 -4 7 11 -18 33 -27
24z"/>
<path d="M1082 1843 c108 -2 288 -2 400 0 112 1 23 2 -197 2 -220 0 -311 -1
-203 -2z"/>
<path d="M3642 1833 c108 -2 288 -2 400 0 112 1 23 2 -197 2 -220 0 -311 -1
-203 -2z"/>
</g>
</svg>
